<svg width="41" height="45" viewBox="0 0 41 45" fill="none" xmlns="http://www.w3.org/2000/svg">
<path d="M4.27108 40.5016L0.661438 0H40.3386L36.7241 40.4952L20.4759 45L4.27108 40.5016Z" fill="#1572B6"/>
<path d="M20.5 41.5575L33.6304 37.9173L36.7193 3.31229H20.5V41.5575Z" fill="#33A9DC"/>
<path d="M20.5 17.9855H27.0732L27.5264 12.8989H20.5V7.93121H32.9554L32.8364 9.26353L31.6166 22.9532H20.5V17.9855Z" fill="white"/>
<path d="M20.5306 30.8861L20.5081 30.8925L14.9763 29.3979L14.6227 25.4362H9.63574L10.3316 33.2357L20.5065 36.0611L20.5306 36.0546V30.8861Z" fill="#EBEBEB"/>
<path d="M26.6506 22.7427L26.0527 29.3946L20.5129 30.8893V36.0579L30.6957 33.2357L30.7713 32.3968L31.6343 22.7427H26.6506Z" fill="white"/>
<path d="M20.5177 7.93121V12.8989H8.51873L8.41908 11.7819L8.19248 9.26353L8.07355 7.93121H20.5177ZM20.5 17.9855V22.9532H15.0373L14.9377 21.8362L14.7127 19.3178L14.5937 17.9855H20.5Z" fill="#EBEBEB"/>
</svg>
