<svg width="15" height="12" viewBox="0 0 15 12" fill="none" xmlns="http://www.w3.org/2000/svg">
<path d="M13.1 0H1.9C1.13 0 0.507 0.63 0.507 1.4L0.5 9.8C0.5 10.57 1.13 11.2 1.9 11.2H13.1C13.87 11.2 14.5 10.57 14.5 9.8V1.4C14.5 0.63 13.87 0 13.1 0ZM12.82 2.975L7.871 6.069C7.647 6.209 7.353 6.209 7.129 6.069L2.18 2.975C2.10981 2.9356 2.04834 2.88236 1.99932 2.81852C1.9503 2.75467 1.91474 2.68154 1.8948 2.60356C1.87486 2.52557 1.87095 2.44435 1.88331 2.36481C1.89567 2.28527 1.92404 2.20907 1.9667 2.14081C2.00936 2.07255 2.06543 2.01366 2.13151 1.9677C2.19759 1.92173 2.27231 1.88966 2.35115 1.87341C2.42998 1.85716 2.5113 1.85708 2.59017 1.87316C2.66904 1.88925 2.74382 1.92117 2.81 1.967L7.5 4.9L12.19 1.967C12.2562 1.92117 12.331 1.88925 12.4098 1.87316C12.4887 1.85708 12.57 1.85716 12.6489 1.87341C12.7277 1.88966 12.8024 1.92173 12.8685 1.9677C12.9346 2.01366 12.9906 2.07255 13.0333 2.14081C13.076 2.20907 13.1043 2.28527 13.1167 2.36481C13.129 2.44435 13.1251 2.52557 13.1052 2.60356C13.0853 2.68154 13.0497 2.75467 13.0007 2.81852C12.9517 2.88236 12.8902 2.9356 12.82 2.975Z" fill="#F5F5F5"/>
</svg>
