<svg width="77" height="45" viewBox="0 0 77 45" fill="none" xmlns="http://www.w3.org/2000/svg">
<path d="M76.4286 43.7901C75.3245 44.2171 74.1058 44.2161 73.0024 43.7875C71.899 43.3589 70.9872 42.5322 70.439 41.4635L59.5345 26.0465L57.9542 23.8911L45.3019 41.4829C44.7866 42.5068 43.9243 43.3038 42.876 43.7248C41.8278 44.1459 40.6654 44.1622 39.6063 43.7708L55.9092 21.4094L40.7441 1.20985C41.8345 0.8081 43.0271 0.802775 44.1209 1.19476C45.2147 1.58675 46.143 2.35211 46.7495 3.36197L58.0522 18.9697L69.4181 3.4266C69.9373 2.42094 70.7999 1.6454 71.8418 1.24742C72.8838 0.849444 74.0324 0.856771 75.0694 1.26801L69.1842 9.25283L61.2129 19.8615C60.9915 20.0634 60.8144 20.3109 60.6931 20.5877C60.5718 20.8644 60.5091 21.1643 60.5091 21.4676C60.5091 21.7708 60.5718 22.0707 60.6931 22.3475C60.8144 22.6242 60.9915 22.8717 61.2129 23.0736L76.3969 43.7934L76.4286 43.7901ZM0.57777 21.1315L1.90527 14.4263C5.55273 1.16784 20.4207 -4.34818 30.6488 3.8596C36.6383 8.67117 38.1334 15.483 37.8394 23.1608H4.0988C3.552 36.8717 13.2301 45.1506 25.6043 40.9207C27.6103 40.1824 29.4058 38.947 30.8301 37.3251C32.2543 35.7032 33.2628 33.7454 33.7653 31.6271C34.4195 29.475 35.4973 29.1066 37.4759 29.727C37.1462 32.3522 36.2385 34.8667 34.8212 37.0815C33.4038 39.2962 31.5136 41.1536 29.2928 42.5137C25.6246 44.5651 21.4158 45.3782 17.2683 44.8367C13.1208 44.2952 9.24697 42.4269 6.20068 39.4988C3.18861 36.0328 1.36819 31.6546 1.01711 27.0321C1.01711 26.2727 0.764253 25.5618 0.593574 24.8799C0.578188 23.6316 0.570813 22.3832 0.571449 21.1347L0.57777 21.1315ZM4.13989 20.2073H34.6534C34.4638 10.2675 28.3288 3.21655 20.1457 3.15193C11.0366 3.02267 4.51918 9.9185 4.11777 20.1621L4.13989 20.2073Z" fill="#F5F5F5"/>
</svg>
