<svg width="31" height="45" viewBox="0 0 31 45" fill="none" xmlns="http://www.w3.org/2000/svg">
<path d="M8 45C12.14 45 15.5 41.64 15.5 37.5V30H8C3.86 30 0.5 33.36 0.5 37.5C0.5 41.64 3.86 45 8 45Z" fill="#0ACF83"/>
<path d="M0.5 22.5C0.5 18.36 3.86 15 8 15H15.5V30H8C3.86 30 0.5 26.64 0.5 22.5Z" fill="#A259FF"/>
<path d="M0.5 7.5C0.5 3.36 3.86 0 8 0H15.5V15H8C3.86 15 0.5 11.64 0.5 7.5Z" fill="#F24E1E"/>
<path d="M15.5 0H23C27.14 0 30.5 3.36 30.5 7.5C30.5 11.64 27.14 15 23 15H15.5V0Z" fill="#FF7262"/>
<path d="M30.5 22.5C30.5 26.64 27.14 30 23 30C18.86 30 15.5 26.64 15.5 22.5C15.5 18.36 18.86 15 23 15C27.14 15 30.5 18.36 30.5 22.5Z" fill="#1ABCFE"/>
</svg>
