<svg width="41" height="45" viewBox="0 0 41 45" fill="none" xmlns="http://www.w3.org/2000/svg">
<path d="M4.27104 40.5016L0.65979 0H40.3401L36.7241 40.4952L20.4759 45L4.27104 40.5016Z" fill="#E44F26"/>
<path d="M20.5 41.5575L33.6304 37.9173L36.7193 3.31229H20.5V41.5575Z" fill="#F1662A"/>
<path d="M20.5 18.3327H13.9268L13.4735 13.2461H20.5V8.27838H8.04462L8.16355 9.61231L9.38337 23.3003H20.5V18.3327ZM20.5 31.2332L20.4775 31.2396L14.9457 29.7466L14.5921 25.785H9.60515L10.301 33.5828L20.4775 36.4082L20.5 36.4018V31.2332Z" fill="#EBEBEB"/>
<path d="M20.4822 18.3327V23.3003H26.599L26.0237 29.7434L20.4822 31.238V36.4066L30.6667 33.5828L30.7406 32.7439L31.9074 19.6666L32.0296 18.3327H30.6908H20.4822ZM20.4822 8.27838V13.2461H32.4812L32.5808 12.1307L32.8074 9.61231L32.9263 8.27838H20.4822Z" fill="white"/>
</svg>
