<svg width="45" height="45" viewBox="0 0 45 45" fill="none" xmlns="http://www.w3.org/2000/svg">
<path d="M34.4531 0H10.5469C4.722 0 0 4.722 0 10.5469V34.4531C0 40.278 4.722 45 10.5469 45H34.4531C40.278 45 45 40.278 45 34.4531V10.5469C45 4.722 40.278 0 34.4531 0Z" fill="#242938"/>
<mask id="mask0_95_167" style="mask-type:luminance" maskUnits="userSpaceOnUse" x="6" y="6" width="33" height="33">
<path d="M6.67969 6.67969H38.3203V38.3203H6.67969V6.67969Z" fill="white"/>
</mask>
<g mask="url(#mask0_95_167)">
<path fill-rule="evenodd" clip-rule="evenodd" d="M35.8244 31.326C34.1035 31.2782 32.7684 31.4545 31.6496 31.9252C31.3274 32.0546 30.8104 32.0546 30.7679 32.4601C30.9401 32.6303 30.9609 32.9087 31.1119 33.1446C31.3697 33.5726 31.8222 34.1492 32.2307 34.4484L33.6078 35.4324C34.447 35.9452 35.3937 36.2449 36.2113 36.7581C36.6848 37.0577 37.158 37.4426 37.6316 37.7638C37.8728 37.9348 38.0188 38.2134 38.3203 38.3198V38.2551C38.1698 38.0633 38.1264 37.7854 37.9765 37.5706L37.3301 36.9508C36.7066 36.1169 35.9314 35.3892 35.0923 34.791C34.4035 34.3204 32.8978 33.679 32.618 32.8881L32.5756 32.8402C33.0483 32.7923 33.6078 32.6259 34.0601 32.4976C34.7922 32.3058 35.4588 32.348 36.2113 32.1557L37.2449 31.8561V31.6644C36.8575 31.2796 36.5778 30.7661 36.1693 30.403C35.072 29.462 33.8662 28.5421 32.618 27.7724C31.951 27.3449 31.0901 27.0663 30.3801 26.7035C30.1212 26.575 29.6914 26.5108 29.5409 26.2971C29.1526 25.8274 28.938 25.2065 28.6583 24.6502L26.894 20.9292C26.5068 20.0951 26.2694 19.2611 25.7968 18.4913C23.58 14.8556 21.1695 12.6533 17.4683 10.4929C16.6725 10.0438 15.7257 9.85061 14.719 9.61576L13.1054 9.52963C12.7605 9.38004 12.4165 8.97346 12.1152 8.7808C10.8886 8.01088 7.72523 6.34307 6.82066 8.54121C6.2397 9.93111 7.68181 11.2996 8.17136 12.0057C8.53787 12.4975 9.01054 13.0533 9.26947 13.6095C9.41414 13.9729 9.46248 14.3582 9.61347 14.7431C9.9573 15.6839 10.2804 16.7323 10.7323 17.6094C10.9735 18.0585 11.2268 18.5296 11.5281 18.9357C11.7003 19.1753 12.0018 19.2779 12.066 19.6627C11.7645 20.0907 11.7438 20.7316 11.5715 21.2671C10.7965 23.6837 11.0979 26.6776 12.1952 28.4569C12.5401 28.9913 13.3527 30.1679 14.4554 29.7185C15.4237 29.3335 15.2077 28.1146 15.4874 27.0452C15.5524 26.7889 15.5092 26.6177 15.6378 26.4461V26.4941L16.5204 28.269C17.1875 29.3168 18.35 30.4077 19.3178 31.1353C19.8339 31.5202 20.243 32.1836 20.8883 32.4185V32.3538H20.8459C20.7165 32.162 20.5226 32.0757 20.3505 31.9261C19.9633 31.5413 19.533 31.0706 19.2315 30.6431C18.3282 29.4456 17.5324 28.1194 16.8219 26.7509C16.4772 26.088 16.1757 25.3608 15.8969 24.698C15.7667 24.4412 15.7667 24.0557 15.5521 23.9282C15.2288 24.3979 14.7563 24.8054 14.5185 25.3825C14.1094 26.3018 14.0671 27.4354 13.9166 28.6117C13.8298 28.6332 13.8683 28.6117 13.8298 28.6596C13.1419 28.489 12.9046 27.7824 12.6468 27.1842C12.0013 25.6658 11.8932 23.2279 12.4527 21.4741C12.6032 21.025 13.2495 19.6135 12.9915 19.1858C12.8614 18.7794 12.4319 18.5446 12.1946 18.2234C11.915 17.817 11.6146 17.3041 11.4207 16.855C10.9046 15.6567 10.6465 14.3313 10.0865 13.1337C9.82757 12.5775 9.37617 11.9999 9.01001 11.4871C8.60097 10.9095 8.15009 10.5029 7.82701 9.81897C7.71943 9.57938 7.56896 9.19881 7.74105 8.94182C7.78359 8.77078 7.87025 8.70223 8.04164 8.66391C8.32113 8.42414 9.11812 8.72807 9.39779 8.85551C10.1935 9.17666 10.8606 9.47584 11.5277 9.92443C11.8292 10.1382 12.1523 10.5448 12.5395 10.6522H12.992C13.6807 10.8016 14.4548 10.7 15.0996 10.8918C16.2404 11.256 17.273 11.79 18.199 12.368C21.0176 14.143 23.3423 16.6665 24.9126 19.6824C25.1706 20.1742 25.2782 20.6234 25.5155 21.1366C25.968 22.185 26.5275 23.2539 26.9784 24.281C27.4308 25.2861 27.861 26.3134 28.5064 27.1473C28.8295 27.5964 30.1201 27.8313 30.7009 28.0666C31.1316 28.2584 31.7981 28.431 32.1864 28.6659C32.9175 29.115 33.6493 29.6283 34.3375 30.1201C34.6813 30.3761 35.7579 30.911 35.8219 31.3376L35.8244 31.326ZM13.8793 12.7419C13.5821 12.7392 13.2858 12.7752 12.9978 12.8487V12.8967H13.0402C13.2124 13.239 13.5139 13.4743 13.7289 13.7739L14.2242 14.8004L14.2668 14.7526C14.568 14.5389 14.719 14.1966 14.719 13.6839C14.5898 13.5343 14.5686 13.3842 14.461 13.2346C14.3318 13.0208 14.0521 12.9134 13.8793 12.7429V12.7419Z" fill="white"/>
</g>
</svg>
