<svg width="75" height="45" viewBox="0 0 75 45" fill="none" xmlns="http://www.w3.org/2000/svg">
<path d="M37.5 0C27.4993 0 21.2511 4.99831 18.749 14.999C22.498 10.0001 26.8746 8.12562 31.8735 9.37549C34.7278 10.0869 36.7675 12.1565 39.0264 14.45C42.7028 18.1808 46.9581 22.5 56.251 22.5C66.2511 22.5 72.4999 17.5011 75.0019 7.49805C71.2523 12.4999 66.8763 14.3744 61.8769 13.1245C59.0232 12.4126 56.9858 10.3435 54.7239 8.05003C51.0499 4.31917 46.7958 0 37.5 0ZM18.749 22.5C8.74889 22.5 2.50013 27.4989 -0.00195312 37.5019C3.74707 32.5001 8.12308 30.6256 13.1226 31.8755C15.9768 32.5874 18.0166 34.6565 20.2755 36.95C23.9518 40.6808 28.2071 45 37.5 45C47.5001 45 53.7489 40.0017 56.251 30.001C52.5014 34.9999 48.1254 36.8744 43.1259 35.6245C40.2722 34.9131 38.2348 32.8435 35.973 30.55C32.2989 26.8192 28.0448 22.5 18.749 22.5Z" fill="#38BDF8"/>
</svg>
