<svg width="47" height="45" viewBox="0 0 47 45" fill="none" xmlns="http://www.w3.org/2000/svg">
<mask id="mask0_95_141" style="mask-type:alpha" maskUnits="userSpaceOnUse" x="0" y="0" width="47" height="45">
<path fill-rule="evenodd" clip-rule="evenodd" d="M32.9592 44.8076C33.3192 44.948 33.7042 45.0128 34.0902 44.9979C34.4763 44.9831 34.8551 44.889 35.2033 44.7214L44.5161 40.2401C44.9957 40.0092 45.4004 39.6476 45.6836 39.197C45.9668 38.7463 46.117 38.2248 46.117 37.6925V7.30706C46.1171 6.77473 45.9669 6.25317 45.6837 5.80242C45.4005 5.35167 44.9958 4.99003 44.5161 4.75913L35.2033 0.27851C34.677 0.0253087 34.0851 -0.0580571 33.5094 0.0399502C32.9337 0.137958 32.4027 0.412491 31.9899 0.825556L14.1614 17.0906L6.39605 11.1958C6.04576 10.9298 5.6134 10.7948 5.174 10.8143C4.73461 10.8338 4.3159 11.0065 3.99053 11.3025L1.49985 13.5681C1.30575 13.7446 1.15063 13.9597 1.04443 14.1996C0.938218 14.4395 0.883257 14.699 0.883057 14.9614C0.882858 15.2237 0.937424 15.4833 1.04327 15.7233C1.14911 15.9634 1.3039 16.1788 1.49773 16.3556L8.23226 22.4996L1.49808 28.644C1.30436 28.8208 1.14966 29.0362 1.04388 29.2762C0.938107 29.5163 0.883576 29.7757 0.883776 30.038C0.883975 30.3004 0.938901 30.5597 1.04504 30.7996C1.15118 31.0395 1.30621 31.2546 1.5002 31.4312L3.99089 33.6967C4.31618 33.9928 4.73487 34.1656 5.17429 34.1852C5.6137 34.2047 6.0461 34.0698 6.39641 33.8038L14.1618 27.9093L31.9903 44.174C32.2659 44.4502 32.5957 44.666 32.9592 44.8076ZM34.8152 12.2312L21.2879 22.4996L34.8156 32.7684L34.8152 12.2312Z" fill="white"/>
</mask>
<g mask="url(#mask0_95_141)">
<path d="M44.5165 4.76651L35.1962 0.278466C34.6698 0.0250966 34.0776 -0.0583596 33.5016 0.0396486C32.9257 0.137657 32.3944 0.412282 31.9814 0.825512L1.47053 28.6439C1.27666 28.8207 1.12184 29.036 1.01597 29.2761C0.910096 29.5161 0.855514 29.7756 0.855713 30.038C0.855913 30.3004 0.91089 30.5598 1.01713 30.7997C1.12336 31.0396 1.27851 31.2546 1.47265 31.4311L3.96475 33.6967C4.29034 33.9927 4.70925 34.1655 5.14887 34.1851C5.58849 34.2046 6.0211 34.0697 6.37169 33.8038L43.1139 5.93022C44.3465 4.99515 46.117 5.87438 46.117 7.42152V7.31338C46.117 6.78121 45.9668 6.25985 45.6836 5.80925C45.4005 5.35864 44.996 4.99744 44.5165 4.76651Z" fill="#0065A9"/>
<g filter="url(#filter0_d_95_141)">
<path d="M44.5165 40.233L35.1962 44.7204C34.6698 44.9738 34.0777 45.0574 33.5018 44.9595C32.9258 44.8616 32.3945 44.5871 31.9814 44.174L1.47053 16.3552C1.27666 16.1785 1.12184 15.9632 1.01597 15.7231C0.910096 15.4831 0.855514 15.2235 0.855713 14.9612C0.855913 14.6988 0.91089 14.4394 1.01713 14.1995C1.12336 13.9596 1.27851 13.7445 1.47265 13.5681L3.96475 11.3025C4.29034 11.0064 4.70925 10.8337 5.14887 10.8141C5.58849 10.7945 6.0211 10.9294 6.37169 11.1954L43.1139 39.0686C44.3465 40.004 46.117 39.1248 46.117 37.5777V37.6858C46.117 38.218 45.9668 38.7393 45.6836 39.1899C45.4005 39.6405 44.996 40.0021 44.5165 40.233Z" fill="#007ACC"/>
</g>
<g filter="url(#filter1_d_95_141)">
<path d="M35.1967 44.7214C34.6701 44.9746 34.0779 45.0579 33.5019 44.9599C32.926 44.8618 32.3947 44.5872 31.9816 44.174C33.0248 45.2172 34.8087 44.4783 34.8087 43.0029V1.99597C34.8087 0.520567 33.0248 -0.218369 31.9816 0.825189C32.3947 0.412007 32.926 0.137394 33.5019 0.039329C34.0779 -0.0587362 34.6701 0.0245919 35.1967 0.277789L44.5152 4.75947C44.9951 4.99022 45.4 5.35179 45.6834 5.80255C45.9668 6.25332 46.1172 6.77495 46.1171 7.3074V37.6925C46.1172 38.2249 45.9668 38.7466 45.6834 39.1973C45.4 39.6481 44.9951 40.0097 44.5152 40.2404L35.1967 44.7214Z" fill="#1F9CF0"/>
</g>
<path opacity="0.25" fill-rule="evenodd" clip-rule="evenodd" d="M32.9321 44.8076C33.292 44.9479 33.6769 45.0126 34.0629 44.9978C34.4489 44.983 34.8277 44.8889 35.1758 44.7214L44.4886 40.24C44.9683 40.0091 45.373 39.6475 45.6562 39.1967C45.9394 38.746 46.0896 38.2244 46.0895 37.6921V7.30701C46.0896 6.77467 45.9394 6.25312 45.6562 5.80236C45.373 5.35161 44.9683 4.98997 44.4886 4.75907L35.1758 0.278453C34.6495 0.0252514 34.0576 -0.0581144 33.4819 0.039893C32.9062 0.1379 32.3752 0.412434 31.9624 0.825499L14.1339 17.0906L6.36854 11.1961C6.01824 10.9301 5.58588 10.7951 5.14649 10.8146C4.70709 10.8341 4.28839 11.0068 3.96302 11.3028L1.47233 13.5684C1.27828 13.7449 1.12321 13.96 1.01703 14.2C0.910857 14.4399 0.855913 14.6993 0.855713 14.9617C0.855514 15.224 0.910064 15.4835 1.01587 15.7236C1.12169 15.9637 1.27643 16.179 1.47021 16.3559L8.20475 22.4996L1.47057 28.6436C1.27673 28.8204 1.12195 29.0358 1.0161 29.2758C0.910263 29.5159 0.855696 29.7754 0.855895 30.0378C0.856095 30.3002 0.911056 30.5596 1.01726 30.7995C1.12347 31.0395 1.27859 31.2546 1.47269 31.4311L3.96337 33.6967C4.2887 33.9927 4.70738 34.1655 5.14678 34.185C5.58617 34.2046 6.01855 34.0697 6.36889 33.8038L14.1346 27.9089L31.9631 44.174C32.2387 44.4501 32.5686 44.6659 32.9321 44.8076ZM34.7881 12.2308L21.2604 22.4996L34.7881 32.768V12.2308Z" fill="url(#paint0_linear_95_141)"/>
</g>
<defs>
<filter id="filter0_d_95_141" x="-1.5004" y="8.45613" width="49.9735" height="38.8993" filterUnits="userSpaceOnUse" color-interpolation-filters="sRGB">
<feFlood flood-opacity="0" result="BackgroundImageFix"/>
<feColorMatrix in="SourceAlpha" type="matrix" values="0 0 0 0 0 0 0 0 0 0 0 0 0 0 0 0 0 0 127 0" result="hardAlpha"/>
<feOffset/>
<feGaussianBlur stdDeviation="1.17806"/>
<feColorMatrix type="matrix" values="0 0 0 0 0 0 0 0 0 0 0 0 0 0 0 0 0 0 0.25 0"/>
<feBlend mode="overlay" in2="BackgroundImageFix" result="effect1_dropShadow_95_141"/>
<feBlend mode="normal" in="SourceGraphic" in2="effect1_dropShadow_95_141" result="shape"/>
</filter>
<filter id="filter1_d_95_141" x="29.6255" y="-2.35678" width="18.8479" height="49.7127" filterUnits="userSpaceOnUse" color-interpolation-filters="sRGB">
<feFlood flood-opacity="0" result="BackgroundImageFix"/>
<feColorMatrix in="SourceAlpha" type="matrix" values="0 0 0 0 0 0 0 0 0 0 0 0 0 0 0 0 0 0 127 0" result="hardAlpha"/>
<feOffset/>
<feGaussianBlur stdDeviation="1.17806"/>
<feColorMatrix type="matrix" values="0 0 0 0 0 0 0 0 0 0 0 0 0 0 0 0 0 0 0.25 0"/>
<feBlend mode="overlay" in2="BackgroundImageFix" result="effect1_dropShadow_95_141"/>
<feBlend mode="normal" in="SourceGraphic" in2="effect1_dropShadow_95_141" result="shape"/>
</filter>
<linearGradient id="paint0_linear_95_141" x1="23.4726" y1="-0.000724752" x2="23.4726" y2="44.9998" gradientUnits="userSpaceOnUse">
<stop stop-color="white"/>
<stop offset="1" stop-color="white" stop-opacity="0"/>
</linearGradient>
</defs>
</svg>
