<svg width="15" height="15" viewBox="0 0 15 15" fill="none" xmlns="http://www.w3.org/2000/svg">
<path fill-rule="evenodd" clip-rule="evenodd" d="M5.54116 0.277625C4.18247 0.672838 2.97455 1.46864 2.0752 2.56108C1.17584 3.65352 0.626876 4.99181 0.5 6.40112H3.71285C3.89911 4.25659 4.52089 2.17261 5.54016 0.276621L5.54116 0.277625ZM3.71285 7.65614H0.5C0.626611 9.0655 1.17534 10.4039 2.07452 11.4965C2.97369 12.5892 4.1815 13.3852 5.54016 13.7806C4.52089 11.8847 3.89911 9.80066 3.71285 7.65614ZM7.1506 14.0487C5.93253 12.1185 5.18614 9.9285 4.97189 7.65614H10.0271C9.81285 9.9285 9.06647 12.1185 7.84839 14.0487C7.61593 14.06 7.38306 14.06 7.1506 14.0487ZM9.45984 13.7796C10.8184 13.3842 12.0261 12.5884 12.9252 11.4959C13.8244 10.4035 14.3732 9.06532 14.5 7.65614H11.2871C11.1009 9.80066 10.4791 11.8847 9.45984 13.7806V13.7796ZM11.2871 6.40112H14.5C14.3734 4.99175 13.8247 3.65334 12.9255 2.56072C12.0263 1.4681 10.8185 0.672068 9.45984 0.276621C10.4791 2.1726 11.1009 4.25659 11.2871 6.40112ZM7.1506 0.00854856C7.38339 -0.00284952 7.61661 -0.00284952 7.8494 0.00854856C9.06712 1.93888 9.81316 4.12884 10.0271 6.40112H4.97289C5.19076 4.11497 5.93875 1.92321 7.1506 0.00854856Z" fill="#F5F5F5"/>
</svg>
